<svg id="Capa_1" enable-background="new 0 0 512 512" height="512" viewBox="0 0 512 512" width="512" xmlns="http://www.w3.org/2000/svg" xmlns:xlink="http://www.w3.org/1999/xlink"><linearGradient id="SVGID_1_" gradientUnits="userSpaceOnUse" x1="256" x2="256" y1="512" y2="0"><stop offset="0" stop-color="#fd3a84"/><stop offset="1" stop-color="#ffa68d"/></linearGradient><linearGradient id="SVGID_2_" gradientUnits="userSpaceOnUse" x1="256" x2="256" y1="330" y2="180"><stop offset="0" stop-color="#ffc2cc"/><stop offset="1" stop-color="#fff2f4"/></linearGradient><g><g><g><path d="m357.836 121.582c2.051-5.142 3.164-10.737 3.164-16.582 0-20.713-14.063-38.218-33.164-43.418 2.051-5.142 3.164-10.737 3.164-16.582 0-24.814-20.186-45-45-45h-30c-8.291 0-15 6.709-15 15 0 12.085-4.688 23.291-13.447 31.846-8.262 8.481-19.453 13.154-31.553 13.154-24.814 0-45 20.186-45 45 0 5.845 1.113 11.44 3.164 16.582-19.102 5.2-33.164 22.705-33.164 43.418 0 24.814 20.186 45 45 45h180c24.814 0 45-20.186 45-45 0-20.713-14.063-38.218-33.164-43.418zm-11.836 178.418h-180c-9.275 0-16.331 8.336-14.795 17.461l30 182c1.201 7.236 7.471 12.539 14.795 12.539h120c7.324 0 13.594-5.303 14.795-12.539l30-182c1.539-9.143-5.536-17.461-14.795-17.461z" fill="url(#SVGID_1_)"/></g></g><g><g><path d="m417.836 185.771c-2.842-3.647-7.207-5.771-11.836-5.771h-300c-4.629 0-8.994 2.124-11.836 5.771-2.842 3.633-3.838 8.379-2.725 12.861l30 120c1.67 6.68 7.676 11.368 14.561 11.368h240c6.885 0 12.891-4.688 14.561-11.367l30-120c1.113-4.483.117-9.229-2.725-12.862z" fill="url(#SVGID_2_)"/></g></g></g></svg>