<svg height="512" viewBox="0 0 512 512" width="512" xmlns="http://www.w3.org/2000/svg"><g id="filled_outline" data-name="filled outline"><path d="m336 114.111-120 149.889h192c0 84.7-85.961 192-192 192s-192-85.961-192-192 85.961-192 192-192a191.191 191.191 0 0 1 120 42.111" fill="#f3be5f"/><path d="m407.75 272h-172.44l118.05 118.04q-5.385 5.9-11.18 11.46l-118.18-118.19v172.48q-3.975.21-8 .21c-2.68 0-5.35-.05-8-.17v-172.52l-121.99 121.99q-5.9-5.415-11.31-11.31l121.99-121.99h-172.52c-.12-2.65-.17-5.32-.17-8s.05-5.35.17-8h172.52l-121.99-121.99q5.415-5.895 11.31-11.31l121.99 121.99v-172.52c2.65-.12 5.32-.17 8-.17s5.35.05 8 .16v181.85l-8 9.99h192q0 3.975-.25 8z" fill="#fef9f0"/><path d="m407.75 272h-172.44l118.05 118.04q-5.385 5.9-11.18 11.46l-118.18-118.19v172.48q-3.975.21-8 .21c-2.68 0-5.35-.05-8-.17v-172.52l-121.99 121.99q-5.9-5.415-11.31-11.31l121.99-121.99h-172.52c-.12-2.65-.17-5.32-.17-8s.05-5.35.17-8h172.52l-121.99-121.99q5.415-5.895 11.31-11.31l121.99 121.99v-172.52c2.65-.12 5.32-.17 8-.17s5.35.05 8 .16v181.85l-8 9.99h192q0 3.975-.25 8z" fill="#dcac56"/><path d="m360 152 .411-1.232a33.3 33.3 0 0 1 31.589-22.768l83.675 108.778a29.293 29.293 0 0 0 -26.439 6.893 43.193 43.193 0 0 0 -9.236 12.329z" fill="#ee9d0d"/><circle cx="248" cy="168" fill="#f7a014" r="8"/><path d="m360 152-144 104h224z" fill="#f3be5f"/><path d="m464 232a24 24 0 0 0 -24 24h-224a16 16 0 0 0 -16 16 16 16 0 0 0 16 16h8a24 24 0 0 1 24 24v39.459c0 13.456 11.011 24.792 24.464 24.537a24 24 0 0 0 23.536-23.996v-23.548c0-8.615 6.621-16.028 15.226-16.434a16 16 0 0 1 16.774 15.982 24 24 0 0 0 23.536 24c13.453.255 24.464-11.081 24.464-24.537v-15.463a24 24 0 0 1 24-24h64a24 24 0 0 0 24-24v-8a24 24 0 0 0 -24-24z" fill="#f7a014"/><path d="m376 200-24 32h40z" fill="#027e2a"/><circle cx="256" cy="216" fill="#8eb23e" r="16"/><circle cx="176" cy="360" fill="#8eb23e" r="16"/><circle cx="168" cy="128" fill="#8eb23e" r="16"/><circle cx="80" cy="304" fill="#027e2a" r="16"/><path d="m320.97 221.529a28 28 0 1 1 23.03-51.045z" fill="#cb2527"/><path d="m240 112.618a28 28 0 0 1 36.785 42.224z" fill="#cb2527"/><path d="m88.492 240a28 28 0 1 1 23.03-51.045z" fill="#cb2527"/><path d="m132.653 288a28 28 0 0 1 -17.321 53.254z" fill="#cb2527"/><path d="m242.637 399.018a28 28 0 1 1 53.363 16.982z" fill="#cb2527"/><g fill="#f7a014"><circle cx="296" cy="232" r="8"/><circle cx="192" cy="176" r="8"/><circle cx="184" cy="416" r="8"/><circle cx="352" cy="360" r="8"/><circle cx="144" cy="400" r="8"/><circle cx="136" cy="232" r="8"/></g><circle cx="248" cy="168" r="8"/><path d="m478.575 227.527a7.857 7.857 0 0 0 -.529-.788l-79.995-103.994v-.006a8 8 0 0 0 -9.124-2.625 41.237 41.237 0 0 0 -35.667 26.886l-18.04 13.029c-.032.023-.059.05-.091.073a36 36 0 0 0 -37.554 27.114l-21.555 15.568c-.115-.173-.233-.343-.352-.513l66.577-83.16a8 8 0 0 0 -1.245-11.241 200.535 200.535 0 0 0 -125-43.87c-110.28 0-200 89.72-200 200s89.72 200 200 200c46.471 0 93.1-20.007 131.3-56.334 33.04-31.424 56.5-71.78 65.123-111.666h51.577a32.036 32.036 0 0 0 32-32v-8a32.025 32.025 0 0 0 -17.425-28.473zm-46.575 52.473h-32a32.036 32.036 0 0 0 -32 32v15.459a16.878 16.878 0 0 1 -5.055 11.963 15.663 15.663 0 0 1 -11.257 4.578 16.076 16.076 0 0 1 -15.688-16 24.109 24.109 0 0 0 -7.436-17.367 23.754 23.754 0 0 0 -17.714-6.606 24.2 24.2 0 0 0 -22.85 24.425v23.548a16.076 16.076 0 0 1 -15.688 16q-.146 0-.291 0a15.6 15.6 0 0 1 -10.966-4.578 16.878 16.878 0 0 1 -5.055-11.963v-39.459a32.036 32.036 0 0 0 -32-32h-8a8 8 0 0 1 0-16h216zm-84.3 104.38-43.7-43.694v-12.234a8.328 8.328 0 0 1 7.6-8.443 8 8 0 0 1 8.4 7.991 32.2 32.2 0 0 0 24.071 30.986 8 8 0 1 0 15.929 1.014 7.842 7.842 0 0 0 -.075-1.035 31.571 31.571 0 0 0 11.452-5.7 223.379 223.379 0 0 1 -23.677 31.115zm-87.564 5.364a20 20 0 0 1 29.08 15.7l-34.945-11.121a19.988 19.988 0 0 1 5.86-4.579zm135.748-93.186a181.037 181.037 0 0 1 -12.027 33.924c.1-1 .148-2.011.148-3.023v-15.459a16.015 16.015 0 0 1 11.874-15.442zm-363.699-24.558h159.815a24.021 24.021 0 0 0 .392 4.294l-32.836 32.836a36.028 36.028 0 0 0 -24.428-28.737 8 8 0 0 0 -10.082 5.132l-17.321 53.254a8 8 0 0 0 5.132 10.083 36.242 36.242 0 0 0 5.624 1.343l-38.057 38.057a183.288 183.288 0 0 1 -48.239-116.262zm48.239-132.262 116.262 116.262h-164.501a183.288 183.288 0 0 1 48.239-116.262zm183.576 76.262a8 8 0 1 1 -8-8 8.009 8.009 0 0 1 8 8zm-11.77 23.7a23.991 23.991 0 0 0 27.453-19.826l18.4-13.288c.223.722.461 1.442.73 2.155a35.764 35.764 0 0 0 18.868 20.079 7.993 7.993 0 0 0 10.582-4l23.03-51.045a7.959 7.959 0 0 0 .287-5.824l6.813-4.92 65.36 84.969h-183.013zm181.024-44.95a41.682 41.682 0 0 0 -18.954 14.718l-21-27.3a25.233 25.233 0 0 1 19.543-13.951zm-225.254 49.936-116.262-116.262a183.3 183.3 0 0 1 116.262-48.24zm-82.069 89.846 11.339-34.862a20 20 0 0 1 -11.339 34.862zm74.845-43.993a24 24 0 0 0 7.224 4.085v153.192a183.3 183.3 0 0 1 -116.262-48.24zm236.182-51.615-12.125-15.761a25.431 25.431 0 0 1 18.9-14.786l12.716 16.53a32.1 32.1 0 0 0 -19.491 14.017zm-48.687-102.65 13.923 18.1a41.252 41.252 0 0 0 -19.317 14.247l-13.825-17.974a25.259 25.259 0 0 1 19.219-14.373zm-74.017 51.508a20.03 20.03 0 0 1 18.261-11.774h.216l-15.077 33.416a20.029 20.029 0 0 1 -3.4-21.642zm-51.613 5.16a23.982 23.982 0 0 0 -25.477 37.905l-13.164 9.507v-160.182a181.515 181.515 0 0 1 100.653 35.312zm-38.641 254.839v-151.781a16.019 16.019 0 0 1 16 16v39.459a32.971 32.971 0 0 0 9.849 23.383c.509.5 1.037.974 1.572 1.436a35.733 35.733 0 0 0 -16.407 20.314 8 8 0 0 0 5.2 10.049l53.363 16.982a8 8 0 0 0 10.049-5.2 36.058 36.058 0 0 0 -13.377-40.2 32.375 32.375 0 0 0 12.2-16.459l34.068 34.068c-.083.079-.165.161-.248.241-32.993 31.377-72.569 49.545-112.269 51.708zm256-183.781a16.019 16.019 0 0 1 -16 16h-16v-24a16 16 0 0 1 32 0z"/><path d="m399.155 228.422-16-32a8 8 0 0 0 -13.555-1.222l-24 32a8 8 0 0 0 6.4 12.8h40a8 8 0 0 0 7.155-11.578zm-31.155-4.422 6.634-8.845 4.422 8.845z"/><path d="m176 336a24 24 0 1 0 24 24 24.027 24.027 0 0 0 -24-24zm0 32a8 8 0 1 1 8-8 8.009 8.009 0 0 1 -8 8z"/><path d="m168 152a24 24 0 1 0 -24-24 24.027 24.027 0 0 0 24 24zm0-32a8 8 0 1 1 -8 8 8.009 8.009 0 0 1 8-8z"/><path d="m80 280a24 24 0 1 0 24 24 24.027 24.027 0 0 0 -24-24zm0 32a8 8 0 1 1 8-8 8.009 8.009 0 0 1 -8 8z"/><path d="m270.752 160.1a8 8 0 0 0 11.287.778 36 36 0 0 0 -47.294-54.29 8 8 0 0 0 -.777 11.288zm2.721-39.5a20.029 20.029 0 0 1 2.992 21.7l-24.081-27.642a20.031 20.031 0 0 1 21.089 5.935z"/><path d="m85.2 247.292a7.993 7.993 0 0 0 10.582-4l23.03-51.045a8 8 0 0 0 -4-10.583 36 36 0 1 0 -29.61 65.63zm-3.426-41.04a20.03 20.03 0 0 1 18.261-11.774h.216l-15.079 33.429a20.056 20.056 0 0 1 -3.4-21.655z"/><circle cx="296" cy="232" r="8"/><circle cx="192" cy="176" r="8"/><circle cx="184" cy="416" r="8"/><circle cx="144" cy="400" r="8"/><circle cx="136" cy="232" r="8"/></g></svg>